<svg xmlns="http://www.w3.org/2000/svg" viewBox="0 0 500 500"><defs><style>.cls-1{fill:#e0e3e7;}</style></defs><g id="Layer_2" data-name="Layer 2"><g id="Layer_1-2" data-name="Layer 1"><rect class="cls-1" width="500" height="500" rx="43.04"/><path d="M414,275.65a95.7,95.7,0,0,0,.63-10.72,97.47,97.47,0,0,0-.5-10,21.51,21.51,0,0,0-13.21-20.18,23.57,23.57,0,0,0-4.48-1.25c-2.2-.38-3.26-.23-4.48-1a5.78,5.78,0,0,1-2.25-3c-2.6-31-22.76-57.62-51.44-68-28.15-10.2-58.46-2.57-78.36,15a78.27,78.27,0,0,0-22.17,33.88c1.34-3.1,16.25-36.1,53.14-43.71,3.62-.74,35.25-6.71,61.59,15.31,17.74,14.84,22.93,33.89,24.41,40.49l-1.79-.75-3.81.06-16-13.39a24.26,24.26,0,0,0-17.06-6.29l-67-.81a36.6,36.6,0,0,0-19.81,8.13l-15.88,16.07a15.66,15.66,0,0,0-3.93,1.9,17,17,0,0,0-1.4,1.06,20.15,20.15,0,0,0-2.11,7.78,19.83,19.83,0,0,0,.34,5.14l10.74,20.76a12.25,12.25,0,0,0,2.06,2.57,12.52,12.52,0,0,0,3.83,2.46,112.27,112.27,0,0,0,12.92,6c1.35.52,2.68,1,4,1.46a26.23,26.23,0,0,0,6.72.73,26,26,0,0,0,4.3-.45,36.8,36.8,0,0,0-4.11-2.62,37.28,37.28,0,0,0-7.84-3.17,154.78,154.78,0,0,1-16.73-6.26c-1.22-.32-2.14-1.09-2.18-1.85,0-1,1.34-2.27,3.49-2.17a92.69,92.69,0,0,1,12.24.94,90.52,90.52,0,0,1,12.89,2.8,47.87,47.87,0,0,0-28-5.51,3.65,3.65,0,0,1-2.3-1.34,3.76,3.76,0,0,1-.59-3.15q-.57-10.14-1.12-20.27a2,2,0,0,1,.4-2,2,2,0,0,1,2.59-.06L271,240.05a11.46,11.46,0,0,0,4,0,11.72,11.72,0,0,0,4.2-1.65,10.68,10.68,0,0,1,16.63,3.92c-.7,0-2.68,0-3.45,1.16-1.25,1.91,1.6,5.45,1.93,5.85,3.57,4.42,9.6,5,15.61,5.59,6.33.62,13-.11,15.53-.92a7.22,7.22,0,0,1,1.5-.31,8.42,8.42,0,0,1,5.13,1.34l4,3.79a13.14,13.14,0,0,0,6.43,6.32,12.61,12.61,0,0,0,4.78,1,102.57,102.57,0,0,0,27.1,2.36,40.09,40.09,0,0,0,11.14-2.18c.41-.13,9.39-3.32,11-7.41.09-.24.59-1.6,1.43-3.77.35-.94.65-1.7.84-2.18a1.65,1.65,0,0,1,1.9,1.22,1.64,1.64,0,0,1-.59,1.31c-.53.89-1.07,1.79-1.65,2.7a89.12,89.12,0,0,1-7.32,9.91,14.13,14.13,0,0,1-7.57,2.56c-2.91.16-11.48.52-23.07.8a46.13,46.13,0,0,1-28.28-10.59,18.94,18.94,0,0,0-4.14-1.71,19.67,19.67,0,0,0-3.49-.62c-2.23-.2-5.94-.7-12.49-1.84-12.46-2.15-16.8-4.18-18.34-5.7a50.28,50.28,0,0,0-4.18-3.73c-1.06-.86-2-1.51-2.5-1.88a6.6,6.6,0,0,0-7.46-2.05,6.81,6.81,0,0,0-3.8,4.71,68.75,68.75,0,0,0-2.36,12.28,69.52,69.52,0,0,0,.15,15,2.3,2.3,0,0,1-1.39,2.31,1.32,1.32,0,0,1-.76-.06c-2.25-.28-4.54-.59-6.87-.95-5.57-.87-10.86-1.91-15.83-3.07a1.62,1.62,0,0,0-1,.65,1.77,1.77,0,0,0,.37,2.15,11.87,11.87,0,0,0,3.24,2.4,12.24,12.24,0,0,0,3.93,1.15c2.93.37,9.1,1.63,17.87,3.55a2.55,2.55,0,0,0,1.45.14,3,3,0,0,0,2-1.66c.72,8.71,4.69,14.09,7.88,14,3.36-.13,5.71-6.37,5.94-7,.7-2.16,1.39-4.32,2.09-6.48.12.59.24,1.18.37,1.77a2.5,2.5,0,0,0,.16,1.29c.61,1.43,2.77,2.22,5.36,1.9l60.1.28a72.61,72.61,0,0,1-31.64,19.68c-24.64,7.43-45.41-1-51.2-3.61a114.43,114.43,0,0,1-15.19-11.09c-13.06-11.29-20.2-22.65-24.67-29.9-16-25.87-22.52-54.1-25-67.14a10.57,10.57,0,0,0-7,.62,8.86,8.86,0,0,0-3,2.49c-2.57,3.24-24.44,24.49-56.31,55.06-.28-.26-.58-.55-.87-.87a15.18,15.18,0,0,1-1.62-2.12V201.65c.18-2.58,1.28-23.68-14.45-36.5a38.5,38.5,0,0,0-17.19-7.84,36.32,36.32,0,0,0-19.68,2.74,34.57,34.57,0,0,0-5.1,2.87c-1.09,1.21-1.15,1.73-1,2,.65,1.12,6-2,12.68-2.16a27.25,27.25,0,0,1,9.87,2c8.39,3.49,14.07,16.77,13.7,32.89V300.06c-.13.62-1.3,6.4,2.12,9.47,1.73,1.55,4,1.57,8.6,1.62,4.16,0,8.91.09,10.46-2.62a7.91,7.91,0,0,0,.58-3.22,24,24,0,0,0-.33-6A99.57,99.57,0,0,1,156.38,260a2.52,2.52,0,0,1,1-.16,2.86,2.86,0,0,1,2.43,1.68c8.17,11.22,14.7,20.37,19.12,26.61,9.26,13.07,13.8,19.75,21.74,29,4.81,5.61,9,10,12,13s14.46,13.13,31,12.94c18.51-.21,35.84-13.42,43.08-33.3l-.19-.07a76.23,76.23,0,0,0,38.79,3.66,77.39,77.39,0,0,0,44.38-24.73,4.7,4.7,0,0,1,5-1.24,4.91,4.91,0,0,1,3,3.49c4.89,6.34,12.92,9,20,6.85,8.13-2.54,11.08-10.4,11.42-11.34l6-3.86a7.73,7.73,0,0,0,.37-1.87A7.86,7.86,0,0,0,414,275.65ZM274.73,231.36c-.39.5-1.05.74-3.73.75-1.13,0-2.63,0-4.41-.19l-6-1.86h6.1a2.34,2.34,0,0,0,1.9-.8,2.11,2.11,0,0,0,.29-.8,5.72,5.72,0,0,0,.06-2,5.53,5.53,0,0,0-.35-2.41,5.91,5.91,0,0,0-2.77-3.07l-12.46,1.37a2.5,2.5,0,0,0-1.4,1.4,12.49,12.49,0,0,0-.14,2.17,6.67,6.67,0,0,1-.28,1.31,17.76,17.76,0,0,1-8-1.76,2.45,2.45,0,0,1-1.65-1.09c-.7-1.25.14-3.51,2.48-5.14l8.12-7.66c5.54-5.91,12.8-7.24,16.77-4.39.65.46,2.64,2.06,3.37,5.93.34,1.45.65,3,.94,4.52A93.49,93.49,0,0,1,275,228.93,2.83,2.83,0,0,1,274.73,231.36Zm10.48-3.24a5.64,5.64,0,0,1-4.61-1.74,5.35,5.35,0,0,1-1.3-3.55q-.94-6.95-1.87-13.89a1.16,1.16,0,0,1-.07-1.18,1.23,1.23,0,0,1,.95-.63l65.14-1.49a9.41,9.41,0,0,1,3,.31,8.84,8.84,0,0,1,2.3,1l26.85,20.55Zm47.9,21.43,5.6-2.68,17.47.11a1.2,1.2,0,0,1,.6.7c.16.64-.43,1.52-1.56,1.93Zm56.37,12a28,28,0,0,1-7.23,2.93,50.39,50.39,0,0,1-11.89,1.67c-4.31.08-7.92-.09-10.59-.29-8.85-.66-11.79-1.91-13.83-3.14a19.53,19.53,0,0,1-3.52-2.71l49.24.1C391.14,260.52,390.41,261,389.48,261.58Zm-27.35-11c.22.21,2.75,2.59,5.94,1.86A6,6,0,0,0,371,250.8a2.3,2.3,0,0,1,2.13-1.31c.92.2,1.75,1.75,1.11,3.55a8.94,8.94,0,0,1-5.67,5c-3.64.89-7.74-1-9.78-4.85a2.27,2.27,0,0,1,0-2.31A2.42,2.42,0,0,1,362.13,250.61Zm-2-4.8a9.54,9.54,0,0,1,12.4.69,8.13,8.13,0,0,1-2.37,2.49c-.76.51-2.72,1.83-4.55,1.25-1.36-.44-1.26-1.49-2.86-1.93-1.18-.33-1.93,0-2.43-.5A2.21,2.21,0,0,1,360.14,245.81Zm34.19,3.87-17.12-.13a1.39,1.39,0,0,1-1.75-.44,1.34,1.34,0,0,1,.06-1.55,1.37,1.37,0,0,1,1.31-.5l17.07.06a1.47,1.47,0,0,1,1.12,1.37A1.51,1.51,0,0,1,394.33,249.68Zm.69-7.32-66.43-.07v-.74l66.52.41Zm-.75-2.84H322.89l-24-6.6,97,5.11ZM289.76,274c-.63,7.34-1.91,15.89-4.8,16.25-.47.06-1-.09-2.1-1-4.84-4.17-5.35-11.65-5.43-14.23-.23-1.9-2.13-18.3,3.61-20.94a3.37,3.37,0,0,1,1.87-.34c5.11.63,6.74,14.22,6.85,15.16Zm25.41,2.55c-1.78,1.84-2.18,3.2-4.3,4.24a12.91,12.91,0,0,1-5.29,1,26.71,26.71,0,0,1-5.11-.18,10.65,10.65,0,0,1,1.25-4.11,10.85,10.85,0,0,1,3.92-4.11,8.28,8.28,0,0,1,2.06-.94,9,9,0,0,1,3.32-.31c2,.16,5.85.18,11.31.12A17.14,17.14,0,0,0,315.17,276.58ZM284,308.7c-.43,1.12-7.08,17.75-24.68,21.38a34.16,34.16,0,0,1-34.5-13.95c-2-2.76-4.81-6.62-8.13-11.24-10.74-14.95-19.83-28-26.94-38.4-4.95-7.22-10.94-16.07-17.69-26.26,1.42-1.5,2.94-3.09,4.67-4.84,6.79-6.9,16-15.74,27.53-25.51a158.28,158.28,0,0,0,8.35,24.78,183.51,183.51,0,0,0,24.54,39.49,129.57,129.57,0,0,0,12.33,13c2.45,2.21,5.22,4.52,8.35,6.86A117.18,117.18,0,0,0,283,308.28l1.06.44Zm68.37-24.87a200.28,200.28,0,0,1-21.54-1.7h53.06A200.86,200.86,0,0,1,352.41,283.83Zm46-5.22-64.83,0v-.39h64.83Z"/></g></g></svg>