<svg xmlns="http://www.w3.org/2000/svg" viewBox="0 0 330.93 186.08"><defs><style>.cls-1{fill:#191919;}</style></defs><g id="Layer_2" data-name="Layer 2"><g id="Layer_1-2" data-name="Layer 1"><path class="cls-1" d="M329.42,118.69A98.25,98.25,0,0,0,330,108a94.74,94.74,0,0,0-.5-10,21.52,21.52,0,0,0-13.2-20.18,23.64,23.64,0,0,0-4.49-1.24c-2.19-.38-3.26-.24-4.48-1a5.72,5.72,0,0,1-2.24-3c-2.61-31-22.76-57.61-51.45-68-28.14-10.2-58.46-2.57-78.35,15a78.24,78.24,0,0,0-22.18,33.89c1.34-3.11,16.25-36.11,53.14-43.72C209.91,9,241.55,3,267.88,25c17.75,14.84,22.93,33.9,24.42,40.49l-1.79-.74-3.82,0L270.75,51.42a24.31,24.31,0,0,0-17.07-6.29l-67-.81a36.73,36.73,0,0,0-19.8,8.13L151,68.52a15.82,15.82,0,0,0-3.93,1.9,15.26,15.26,0,0,0-1.39,1.06A20,20,0,0,0,143.9,84.4l10.75,20.76a12.23,12.23,0,0,0,2,2.57,12.52,12.52,0,0,0,3.83,2.46,112.45,112.45,0,0,0,12.93,6c1.35.52,2.67,1,4,1.46a25.93,25.93,0,0,0,6.73.73,25.14,25.14,0,0,0,4.3-.45,37,37,0,0,0-4.11-2.61,37.52,37.52,0,0,0-7.85-3.18,151.88,151.88,0,0,1-16.72-6.26c-1.23-.32-2.15-1.09-2.19-1.84,0-1,1.34-2.28,3.49-2.18a93,93,0,0,1,25.14,3.74,48.13,48.13,0,0,0-28-5.51,3.64,3.64,0,0,1-2.31-1.34,3.76,3.76,0,0,1-.59-3.15q-.56-10.12-1.12-20.27a1.92,1.92,0,0,1,.4-2,2,2,0,0,1,2.59-.07l29.34,9.81a11.4,11.4,0,0,0,4,0,11.6,11.6,0,0,0,4.21-1.65,10.67,10.67,0,0,1,16.63,3.93c-.71,0-2.69,0-3.46,1.15-1.25,1.92,1.61,5.45,1.93,5.85,3.57,4.42,9.6,5,15.62,5.6,6.33.61,13-.12,15.52-.93a8,8,0,0,1,1.5-.31A8.54,8.54,0,0,1,247.61,98l4,3.79a13.06,13.06,0,0,0,6.42,6.32,12.24,12.24,0,0,0,4.79,1,102.62,102.62,0,0,0,27.09,2.37,40.93,40.93,0,0,0,11.15-2.18c.4-.14,9.38-3.33,11-7.41.09-.25.59-1.61,1.43-3.78.36-.93.65-1.69.84-2.17a1.65,1.65,0,0,1,1.9,1.21,1.61,1.61,0,0,1-.59,1.31q-.78,1.33-1.65,2.7a87.88,87.88,0,0,1-7.32,9.91,13.7,13.7,0,0,1-3.27,1.71,14.1,14.1,0,0,1-4.29.85c-2.92.17-11.49.52-23.08.81a46.72,46.72,0,0,1-17.29-3.83,46.15,46.15,0,0,1-11-6.76,18.72,18.72,0,0,0-4.15-1.72,19.53,19.53,0,0,0-3.49-.62c-2.23-.2-5.94-.7-12.49-1.84-12.45-2.14-16.79-4.17-18.34-5.69a50.31,50.31,0,0,0-4.17-3.74c-1.07-.86-2-1.5-2.5-1.88a6.64,6.64,0,0,0-7.47-2,6.83,6.83,0,0,0-3.8,4.71,69.39,69.39,0,0,0-2.21,27.25,2.3,2.3,0,0,1-1.38,2.31,1.38,1.38,0,0,1-.77-.07c-2.24-.28-4.53-.59-6.87-1-5.57-.87-10.85-1.91-15.83-3.07a1.62,1.62,0,0,0-1,.65,1.79,1.79,0,0,0,.38,2.15,11.52,11.52,0,0,0,7.16,3.55c2.94.37,9.11,1.63,17.87,3.55a2.57,2.57,0,0,0,1.46.14,2.92,2.92,0,0,0,2-1.66c.72,8.71,4.69,14.09,7.88,14,3.36-.13,5.72-6.36,5.95-7,.69-2.16,1.39-4.31,2.08-6.47.13.58.25,1.17.37,1.76a2.5,2.5,0,0,0,.16,1.29c.62,1.44,2.77,2.22,5.36,1.9l60.1.28a72.55,72.55,0,0,1-31.64,19.68c-24.64,7.43-45.4-1-51.19-3.61A114.42,114.42,0,0,1,176,135.63c-13.06-11.28-20.19-22.64-24.67-29.9-16-25.87-22.51-54.09-25-67.14a10.6,10.6,0,0,0-7,.62,8.83,8.83,0,0,0-3,2.5C113.71,44.94,91.84,66.2,60,96.77c-.28-.27-.57-.56-.87-.88a15.13,15.13,0,0,1-1.62-2.11V44.7C57.66,42.11,58.76,21,43,8.2A38.42,38.42,0,0,0,25.84.35,36.43,36.43,0,0,0,6.16,3.09,33.69,33.69,0,0,0,1.06,6C0,7.17-.09,7.7.06,8c.64,1.12,6-2,12.68-2.16a27.21,27.21,0,0,1,9.86,2C31,11.31,36.67,24.59,36.31,40.71v102.4c-.14.61-1.31,6.4,2.11,9.46,1.73,1.55,4,1.57,8.6,1.62,4.17.05,8.91.1,10.46-2.61a7.93,7.93,0,0,0,.58-3.23,23,23,0,0,0-.33-6A100.9,100.9,0,0,1,63.05,121a98.86,98.86,0,0,1,8.8-18,2.67,2.67,0,0,1,1-.16,2.93,2.93,0,0,1,2.43,1.68c8.17,11.22,14.69,20.37,19.11,26.61,9.26,13.08,13.8,19.75,21.75,29,4.81,5.61,9,10,12,13s14.46,13.13,31,12.94c18.52-.21,35.84-13.42,43.08-33.3l-.19-.07a76.36,76.36,0,0,0,38.8,3.67c25-4.22,40-19.81,44.38-24.74a4.71,4.71,0,0,1,5-1.24,5,5,0,0,1,3,3.49c4.88,6.35,12.92,9.05,20,6.85,8.13-2.54,11.08-10.39,11.42-11.34l6-3.86a7.11,7.11,0,0,0,.37-1.87A7.93,7.93,0,0,0,329.42,118.69ZM190.2,74.41c-.39.49-1,.73-3.74.74-1.12,0-2.63,0-4.41-.18l-6-1.87h6.11a2.35,2.35,0,0,0,1.9-.8,2,2,0,0,0,.28-.8,5.45,5.45,0,0,0,.06-2,5.69,5.69,0,0,0-.34-2.42A6,6,0,0,0,181.3,64l-12.45,1.37a2.63,2.63,0,0,0-1.41,1.4c-.22.61,0,1.06-.13,2.17a7.5,7.5,0,0,1-.28,1.31,18.2,18.2,0,0,1-3.41-.28,17.66,17.66,0,0,1-4.56-1.48,2.48,2.48,0,0,1-1.66-1.09c-.69-1.25.14-3.51,2.48-5.14L168,54.6c5.53-5.91,12.79-7.24,16.77-4.39.65.46,2.63,2.06,3.36,5.93.34,1.45.66,3,.94,4.52A91.46,91.46,0,0,1,190.43,72,2.87,2.87,0,0,1,190.2,74.41Zm10.48-3.24a5.68,5.68,0,0,1-4.61-1.75,5.38,5.38,0,0,1-1.31-3.55q-.93-6.95-1.87-13.89a1.16,1.16,0,0,1-.06-1.18,1.24,1.24,0,0,1,.95-.63l65.13-1.49a9.39,9.39,0,0,1,3,.31,9.28,9.28,0,0,1,2.31,1l26.84,20.55Zm47.89,21.42,5.61-2.68,17.46.11a1.2,1.2,0,0,1,.6.7c.16.65-.43,1.52-1.56,1.93Zm56.38,12a28.67,28.67,0,0,1-7.23,2.92,50,50,0,0,1-11.9,1.67c-4.3.08-7.91-.09-10.59-.29-8.84-.65-11.79-1.9-13.83-3.13a19.87,19.87,0,0,1-3.52-2.72l49.24.1A25.87,25.87,0,0,1,305,104.63Zm-27.35-11c.22.22,2.74,2.6,5.93,1.86a6,6,0,0,0,2.91-1.67,2.32,2.32,0,0,1,2.14-1.31c.91.21,1.74,1.75,1.1,3.55a8.33,8.33,0,0,1-15.45.19,2.27,2.27,0,0,1,0-2.31A2.44,2.44,0,0,1,277.6,93.65Zm-2-4.79a9.52,9.52,0,0,1,12.4.68A8.13,8.13,0,0,1,285.63,92c-.75.51-2.72,1.83-4.55,1.25-1.35-.44-1.26-1.49-2.86-1.93-1.18-.32-1.92.05-2.43-.5A2.25,2.25,0,0,1,275.6,88.86Zm34.2,3.86-17.13-.12a1.38,1.38,0,0,1-1.74-.44A1.34,1.34,0,0,1,291,90.6a1.37,1.37,0,0,1,1.31-.5l17.06.06a1.46,1.46,0,0,1,1.12,1.37A1.53,1.53,0,0,1,309.8,92.72Zm.68-7.31-66.42-.07v-.75l66.52.41Zm-.74-2.85H238.36l-24-6.6,97,5.11ZM205.22,117.07c-.63,7.34-1.91,15.89-4.79,16.26-.47.06-1.05-.1-2.11-1-4.83-4.18-5.35-11.66-5.43-14.24-.23-1.9-2.13-18.3,3.61-20.94a3.41,3.41,0,0,1,1.87-.34c5.11.63,6.75,14.23,6.85,15.16Zm25.41,2.55c-1.77,1.84-2.18,3.2-4.29,4.24a13.15,13.15,0,0,1-5.3,1,27.41,27.41,0,0,1-5.11-.19,11.06,11.06,0,0,1,1.25-4.11,10.92,10.92,0,0,1,3.92-4.11,8.47,8.47,0,0,1,2.06-.94,8.69,8.69,0,0,1,3.32-.3c2,.15,5.86.17,11.32.12A17.19,17.19,0,0,0,230.63,119.62ZM199.5,151.74c-.43,1.13-7.08,17.76-24.67,21.39a34.19,34.19,0,0,1-34.51-14c-2-2.76-4.81-6.61-8.13-11.24-10.74-15-19.83-28-26.93-38.4-5-7.22-11-16.07-17.7-26.26,1.42-1.5,2.94-3.08,4.67-4.84,6.79-6.9,16-15.74,27.54-25.51a158.57,158.57,0,0,0,8.34,24.79,183.79,183.79,0,0,0,24.54,39.48A130.82,130.82,0,0,0,165,130.14c2.45,2.21,5.23,4.53,8.35,6.86a117.08,117.08,0,0,0,25.17,14.33l1.06.43Zm68.38-24.87a200.27,200.27,0,0,1-21.55-1.7H299.4A199.8,199.8,0,0,1,267.88,126.87Zm46-5.22-64.82,0v-.39H313.9Z"/></g></g></svg>